<?xml version="1.0" encoding="utf-8"?>
<!-- Generator: Adobe Illustrator 26.0.1, SVG Export Plug-In . SVG Version: 6.00 Build 0)  -->
<svg version="1.1" xmlns="http://www.w3.org/2000/svg" xmlns:xlink="http://www.w3.org/1999/xlink" x="0px" y="0px"
	 viewBox="0 0 730 762" style="enable-background:new 0 0 730 762;" xml:space="preserve">
<style type="text/css">
	.st0{fill-rule:evenodd;clip-rule:evenodd;fill:url(#SVGID_1_);fill-opacity:0.5;stroke:#0B4391;enable-background:new    ;}
	.st1{fill-rule:evenodd;clip-rule:evenodd;fill:#248191;fill-opacity:0.5;stroke:#0B4391;enable-background:new    ;}
	.st2{fill-rule:evenodd;clip-rule:evenodd;fill:#69A4FE;stroke:#0B4391;enable-background:new    ;}
	.st3{fill-rule:evenodd;clip-rule:evenodd;fill:#1A7D1E;fill-opacity:0.5;stroke:#0B4391;enable-background:new    ;}
</style>
<g id="Layer_1">
	
		<linearGradient id="SVGID_1_" gradientUnits="userSpaceOnUse" x1="126.9822" y1="680.6118" x2="612.1566" y2="96.5618" gradientTransform="matrix(1 0 0 -1 0 761.2756)">
		<stop  offset="0" style="stop-color:#78B1E6"/>
		<stop  offset="1" style="stop-color:#2680D3"/>
	</linearGradient>
	<path class="st0" d="M365.01,104.64c51.82-1.34,111.22-16.26,152.06,15.67c41.22,32.23,20.51,104.01,53.24,144.84
		c41.87,52.24,150.2,52.02,157.88,118.53c7.26,62.91-92.67,83.28-128.57,135.45c-32,46.49-18.9,125.38-68.94,151.49
		c-50.57,26.39-109.35-20.05-165.67-29.08c-46.53-7.46-96.23,3.04-137.59-19.55c-41.71-22.78-63.74-67.54-91.92-105.81
		c-31.5-42.78-69.72-81.22-83.58-132.51c-16.06-59.42-34.74-129.84-1.28-181.51c33.64-51.95,107.69-55.75,166.81-74.09
		C265.84,113.07,314.36,105.96,365.01,104.64z"/>
</g>
<g id="Layer_2">
	<path class="st1" d="M370.69,7.47c61.41,20.55,62.73,113.04,114.31,152.2c45.02,34.18,122.59,9.16,157.17,53.88
		C676.53,258,657.19,322.17,654,378.27c-3.48,61.27,2.32,126.3-31.29,177.65c-35.42,54.11-91.47,104.91-156.03,108.54
		c-64.04,3.6-106.05-66.19-165.43-90.45c-50.86-20.78-127.21,5.71-156.19-40.97c-30.36-48.89,25.17-109.45,27.09-166.96
		c1.46-43.61-20.35-83.57-17.25-127.09c4.37-61.42-3.12-131.72,38.86-176.76C236.72,16.12,310.93-12.53,370.69,7.47z"/>
</g>
<g id="Layer_3">
	<path class="st2" d="M352.05,157.01c64.73-0.61,117.97,49.56,166.01,92.94c42.41,38.31,79.04,84.76,92.29,140.35
		c12.11,50.81-11.37,100.84-22.66,151.84c-10.37,46.82-11.89,96.68-40.85,134.9c-29.92,39.48-73.88,67.26-121.81,79.74
		c-47.14,12.27-94.65-3.23-142.76-10.86c-55.65-8.83-116.61-3.12-161.35-37.38C72.81,671.71,31.92,614.85,32,554.27
		c0.08-59.8,61.82-98.28,89.33-151.38c25.67-49.54,28.54-109.12,66.72-149.81C232.3,205.93,287.38,157.62,352.05,157.01z"/>
</g>
<g id="Layer_4">
	<path class="st3" d="M352.92,23.87c50.23,21.75,63.91,85.47,103.94,122.79c30.31,28.25,71.95,38.55,100.93,68.18
		c40.46,41.36,90.58,80.36,100.17,137.42c10.47,62.36,1.71,139.38-46.88,179.84c-49.29,41.05-125.09,2.58-187.88,15.68
		c-55.58,11.59-100.33,56.39-157.1,56.28c-67.05-0.13-139.45-11.43-188.67-56.95C26.72,500.21-0.89,428.03,1.1,358.98
		c1.89-65.4,57.58-113.07,86.73-171.65c27.91-56.1,27.64-132.53,80.98-165.42C222.13-10.97,295.44-1.02,352.92,23.87z"/>
</g>
</svg>
