<?xml version="1.0" encoding="utf-8"?>
<!-- Generator: Adobe Illustrator 26.0.1, SVG Export Plug-In . SVG Version: 6.00 Build 0)  -->
<svg version="1.1" id="Layer_1" xmlns="http://www.w3.org/2000/svg" xmlns:xlink="http://www.w3.org/1999/xlink" x="0px" y="0px"
	 viewBox="0 0 853.99 993.11" style="enable-background:new 0 0 853.99 993.11;" xml:space="preserve">
<style type="text/css">
	
		.st0{fill-rule:evenodd;clip-rule:evenodd;fill:url(#SVGID_1_);fill-opacity:0.5;stroke:#0B4390;stroke-width:0.8546;enable-background:new    ;}
</style>
<linearGradient id="SVGID_1_" gradientUnits="userSpaceOnUse" x1="375.7546" y1="132.5584" x2="1080.636" y2="981.0903" gradientTransform="matrix(0.5937 0.8047 -0.8047 0.5937 439.4287 -387.0269)">
	<stop  offset="0" style="stop-color:#78B0E5"/>
	<stop  offset="1" style="stop-color:#2680D2"/>
</linearGradient>
<path class="st0" d="M733.1,292.94c46.27,59.42,114.95,115.99,112.85,191.28c-2.12,76-103.9,113.7-123.39,187.18
	c-24.95,94.01,68.75,220.47-2.38,286.81c-67.29,62.76-177.29-36.49-269.25-33.47c-81.96,2.69-162.88,86.06-236.57,50.09
	c-74.47-36.35-70.89-145.12-108.91-218.75C74.03,695.24,18.88,646.2,9.61,578.37c-9.35-68.42,23.97-132.77,44.4-198.73
	c22.83-73.73,34.81-151.57,82.81-212.01C192.43,97.6,258.64,15.01,347.89,9.56c89.76-5.48,158.07,77.81,230.5,131.1
	C637.69,184.28,687.87,234.86,733.1,292.94z"/>
</svg>
